<svg xmlns="http://www.w3.org/2000/svg" viewBox="0 0 130.2 130.2"><defs><style>.cls-1{fill:none;stroke:#000f9f;stroke-linecap:round;stroke-miterlimit:10;stroke-width:3px;}.cls-2{fill:#000f9f;}</style></defs><g id="Layer_2" data-name="Layer 2"><g id="Design_Content" data-name="Design Content"><circle class="cls-1" cx="65.1" cy="65.1" r="63.6"/><path class="cls-2" d="M86.56,62,67.12,43.74a2.37,2.37,0,0,0-1.63-.64,2.34,2.34,0,0,0-1.57.6L43.67,62a2.36,2.36,0,0,0-.78,1.75V82.44a2.36,2.36,0,0,0,2.36,2.36H58.5a.74.74,0,0,0,.75-.74V75.52a5.85,5.85,0,0,1,6.43-5.83A6,6,0,0,1,71,75.78v8.28a.74.74,0,0,0,.75.74H85a2.36,2.36,0,0,0,2.36-2.36V63.69A2.34,2.34,0,0,0,86.56,62Z"/></g></g></svg>