<svg xmlns="http://www.w3.org/2000/svg" xmlns:xlink="http://www.w3.org/1999/xlink" viewBox="0 0 3243.97 1903.2"><defs><style>.cls-1,.cls-5,.cls-6{fill:none;}.cls-2{clip-path:url(#clip-path);}.cls-3{fill:#e6e6e6;}.cls-4{fill:#000f9f;}.cls-4,.cls-5,.cls-6{stroke:#000f9f;stroke-miterlimit:10;stroke-width:3px;}.cls-6{stroke-linecap:round;}.cls-7{clip-path:url(#clip-path-2);}.cls-8{clip-path:url(#clip-path-3);}.cls-9{fill:#999;}.cls-10{fill:url(#linear-gradient);}</style><clipPath id="clip-path" transform="translate(96.79 63.77)"><rect class="cls-1" y="0.66" width="791.25" height="1635.93"/></clipPath><clipPath id="clip-path-2" transform="translate(96.79 63.77)"><rect class="cls-1" x="855.51" y="0.66" width="1081.59" height="1635.93"/></clipPath><clipPath id="clip-path-3" transform="translate(96.79 63.77)"><polygon class="cls-1" points="2795.21 1636.59 2001.35 1636.59 2001.35 0.66 2797.74 0.66 2795.21 1636.59"/></clipPath><linearGradient id="linear-gradient" x1="136.47" y1="882.4" x2="626.73" y2="882.4" gradientUnits="userSpaceOnUse"><stop offset="0" stop-color="#fff"/><stop offset="0.08" stop-color="#fff" stop-opacity="0.96"/><stop offset="0.23" stop-color="#fff" stop-opacity="0.86"/><stop offset="0.41" stop-color="#fff" stop-opacity="0.7"/><stop offset="0.62" stop-color="#fff" stop-opacity="0.47"/><stop offset="0.86" stop-color="#fff" stop-opacity="0.19"/><stop offset="1" stop-color="#fff" stop-opacity="0"/></linearGradient></defs><g id="Layer_2" data-name="Layer 2"><g id="Design_Content" data-name="Design Content"><g class="cls-2"><rect class="cls-3" width="984.83" height="1903.2"/></g><circle class="cls-4" cx="1347.63" cy="1763.41" r="9.4"/><circle class="cls-5" cx="1289.45" cy="1763.41" r="9.4"/><circle class="cls-5" cx="1405.81" cy="1763.41" r="9.4"/><circle class="cls-5" cx="1464" cy="1763.41" r="9.4"/><circle class="cls-5" cx="1522.18" cy="1763.41" r="9.4"/><circle class="cls-5" cx="1580.36" cy="1763.41" r="9.4"/><circle class="cls-5" cx="1638.55" cy="1763.41" r="9.4"/><circle class="cls-5" cx="1696.73" cy="1763.41" r="9.4"/><polyline class="cls-6" points="1781.49 1759.05 1785.29 1763.41 1781.49 1767.77"/><polyline class="cls-6" points="1204.68 1767.77 1200.89 1763.41 1204.68 1759.05"/><g class="cls-7"><rect class="cls-3" x="893.18" width="1204.95" height="1754.01"/></g><g class="cls-8"><rect class="cls-3" x="2039.02" width="1204.95" height="1754.01"/></g><path class="cls-9" d="M418.51,945.61H94.72V741.75H418.51Zm-8.59-9.16V750.74H103.7V936.63c3.68.39,6.48.39,9.22-3,23.25-28.46,46.77-56.7,70.21-85,6.67-8,13.35-16.08,20.22-24.35l80.45,97.12,53-57.07c.74.94,1.17,1.58,1.69,2.14,20.63,22.26,41.33,44.46,61.82,66.86C403.07,936.42,405.83,937.5,409.92,936.45Z" transform="translate(96.79 63.77)"/><path class="cls-9" d="M293.71,770.66a19.29,19.29,0,1,1-19.33,19.09A19.3,19.3,0,0,1,293.71,770.66Z" transform="translate(96.79 63.77)"/><path class="cls-9" d="M1558.2,945.61H1234.4V741.75h323.8Zm-8.6-9.16V750.74H1243.39V936.63c3.68.39,6.48.39,9.22-3,23.25-28.46,46.77-56.7,70.21-85,6.67-8,13.35-16.08,20.22-24.35l80.44,97.12,53-57.07c.74.94,1.17,1.58,1.69,2.14,20.63,22.26,41.33,44.46,61.82,66.86C1542.76,936.42,1545.52,937.5,1549.6,936.45Z" transform="translate(96.79 63.77)"/><path class="cls-9" d="M1433.39,770.66a19.29,19.29,0,1,1-19.33,19.09A19.3,19.3,0,0,1,1433.39,770.66Z" transform="translate(96.79 63.77)"/><path class="cls-9" d="M2722.43,945.61H2398.64V741.75h323.79Zm-8.6-9.16V750.74H2407.62V936.63c3.68.39,6.48.39,9.22-3,23.25-28.46,46.77-56.7,70.21-85,6.67-8,13.35-16.08,20.22-24.35l80.45,97.12,53-57.07c.74.94,1.17,1.58,1.69,2.14,20.63,22.26,41.33,44.46,61.82,66.86C2707,936.42,2709.75,937.5,2713.83,936.45Z" transform="translate(96.79 63.77)"/><path class="cls-9" d="M2597.63,770.66a19.29,19.29,0,1,1-19.33,19.09A19.11,19.11,0,0,1,2597.63,770.66Z" transform="translate(96.79 63.77)"/><rect class="cls-10" x="96.79" y="63.77" width="576.27" height="1637.25"/></g></g></svg>