<svg xmlns="http://www.w3.org/2000/svg" xmlns:xlink="http://www.w3.org/1999/xlink" viewBox="0 0 1882.14 2267.26"><defs><style>.cls-1{fill:none;}.cls-2{clip-path:url(#clip-path);}.cls-3{fill:#e6e6e6;}.cls-4{fill:#999;}</style><clipPath id="clip-path" transform="translate(40.33 30.93)"><path class="cls-1" d="M0,0H952.73a848.75,848.75,0,0,1,848.75,848.75V2160a0,0,0,0,1,0,0H0a0,0,0,0,1,0,0V0A0,0,0,0,1,0,0Z"/></clipPath></defs><g id="Layer_2" data-name="Layer 2"><g id="Design_Content" data-name="Design Content"><g class="cls-2"><rect class="cls-3" x="-40.33" y="-30.93" width="1882.14" height="2267.26" transform="translate(1841.81 2236.33) rotate(-180)"/></g><path class="cls-4" d="M1255.83,1307.93H531.76V852.07h724.07Zm-19.22-20.48V872.17H551.86v415.68c8.23.86,14.48.88,20.61-6.62,52-63.63,104.59-126.79,157-190.08,14.91-18,29.85-36,45.21-54.45l179.9,217.17L1073,1126.27c1.65,2.1,2.61,3.52,3.77,4.77,46.13,49.79,92.43,99.43,138.25,149.51C1221.31,1287.39,1227.48,1289.79,1236.61,1287.45Z" transform="translate(40.33 30.93)"/><path class="cls-4" d="M976.75,916.71c24.3,0,43.9,19.67,43.45,43.55a43.34,43.34,0,1,1-43.45-43.55Z" transform="translate(40.33 30.93)"/></g></g></svg>