<svg xmlns="http://www.w3.org/2000/svg" xmlns:xlink="http://www.w3.org/1999/xlink" viewBox="0 0 2735.85 2026.17"><defs><style>.cls-1{fill:none;}.cls-2{clip-path:url(#clip-path);}.cls-3{fill:#e6e6e6;}.cls-4{fill:#999;}</style><clipPath id="clip-path" transform="translate(270.71 207.15)"><path class="cls-1" d="M2317.28,1565.36,0,1566V846.77C0,379.48,378.82.66,846.11.66L2317.28,0Z"/></clipPath></defs><g id="Layer_2" data-name="Layer 2"><g id="Design_Content" data-name="Design Content"><g class="cls-2"><rect class="cls-3" width="2735.85" height="2026.17"/></g><path class="cls-4" d="M1689.67,1060.22H895.58V560.27h794.09Zm-21.07-22.46V582.31h-751V1038.2c9,1,15.89,1,22.61-7.26,57-69.79,114.7-139.05,172.2-208.46,16.34-19.74,32.74-39.44,49.58-59.72,66,79.71,131.48,158.72,197.29,238.18l129.9-140c1.81,2.3,2.87,3.86,4.13,5.23,50.6,54.61,101.38,109,151.63,164C1651.81,1037.7,1658.58,1040.32,1668.6,1037.76Z" transform="translate(270.71 207.15)"/><path class="cls-4" d="M1383.6,631.17c26.65,0,48.15,21.57,47.66,47.75a47.29,47.29,0,0,1-47.64,46.85c-26.71,0-47.57-21-47.43-47.78A46.88,46.88,0,0,1,1383.6,631.17Z" transform="translate(270.71 207.15)"/></g></g></svg>