<?xml version="1.0" encoding="UTF-8"?><svg xmlns="http://www.w3.org/2000/svg" viewBox="0 0 5591.79 1134.76"><defs><style>.d{fill:none;stroke:#081698;stroke-miterlimit:10;stroke-width:3px;}</style></defs><g id="a"/><g id="b"><g id="c"><g><path class="d" d="M1.5,579.93v369.14c0,101.73,82.47,184.19,184.19,184.19h1006.52c101.73,0,184.19-82.47,184.19-184.19V185.69c0-101.73,82.47-184.19,184.19-184.19h742.9c107.9,0,195.37,87.47,195.37,195.37V932.29c0,110.66,89.71,200.37,200.37,200.37h526.95"/><path class="d" d="M3221.82,1132.67h481.82c101.73,0,184.19-82.47,184.19-184.19V185.69c0-101.73,82.47-184.19,184.19-184.19h1124.03c107.9,0,195.37,87.47,195.37,195.37V930.8c0,110.66,89.71,200.37,200.37,200.37"/></g></g></g></svg>