<?xml version="1.0" encoding="UTF-8"?><svg xmlns="http://www.w3.org/2000/svg" viewBox="0 0 126 109.7"><defs><style>.d{fill:#fff;}</style></defs><g id="a"/><g id="b"><g id="c"><path class="d" d="M51.29,12.1V46.38c-2.67-6.25-8.6-11.74-14.64-15.47H11.23c8.25,6.23,21.26,15.97,21.26,23.76,0,3.87-4.64,4.65-7.29,4.65H9.17v18.64h25.12c5.63,0,13.72-2.07,17-10.85v25h23.41v-25c3.27,8.79,11.37,10.85,16.99,10.85h25.12v-18.64h-16.03c-2.65,0-7.29-.77-7.29-4.65,0-7.79,13.02-17.53,21.27-23.76h-25.43c-6.04,3.73-11.97,9.22-14.64,15.47V12.1h-23.4ZM63,0c34.79,0,63,24.57,63,54.86,0,30.29-28.2,54.84-62.99,54.84C28.22,109.69,0,85.13,0,54.84,0,24.55,28.2,0,63,0"/></g></g></svg>